<svg width="32" height="32" viewBox="0 0 32 32" fill="none" xmlns="http://www.w3.org/2000/svg">
<g clip-path="url(#clip0_6004_153028)">
<path d="M6.85497 13.4973L3.78516 21.6856V21.6862C4.53636 24.6873 6.18751 27.3402 8.52487 29.3414L12.3765 27.8971C8.28545 24.2329 6.26619 18.8432 6.85497 13.4973Z" fill="#ED1B2F"/>
<path d="M2.74596 24.4573L0.392982 30.7313C0.111749 31.4806 0.844829 32.2218 1.59978 31.9381L6.56386 30.0769C4.89883 28.4609 3.60722 26.535 2.74596 24.4573Z" fill="#ED1B2F"/>
<path d="M13.4359 12.7337L9.93676 9.2345C7.09969 15.6342 9.03926 22.9491 14.3921 27.1415L18.1269 25.741C14.8468 22.3537 13.0728 17.6257 13.4359 12.7337Z" fill="#ED1B2F"/>
<path d="M15.2666 14.5642C15.4103 18.5421 17.1427 22.3012 20.0738 25.0105H20.0744L22.8118 23.9843C23.4511 23.7443 23.6261 22.9237 23.1455 22.4431L15.2666 14.5642Z" fill="#ED1B2F"/>
<path d="M22.1135 17.5093C22.4796 17.8754 23.0731 17.8754 23.4392 17.5093C26.966 13.9825 30.4001 15.0729 30.4344 15.0843C30.9256 15.248 31.4565 14.9826 31.6202 14.4914C31.784 14.0004 31.5185 13.4693 31.0273 13.3056C30.8424 13.244 26.4506 11.8465 22.1135 16.1836C21.7474 16.5496 21.7473 17.1433 22.1135 17.5093Z" fill="#ED1B2F"/>
<path d="M16.1478 10.2176C20.485 5.88095 19.087 1.48871 19.0257 1.30372C18.862 0.812503 18.3308 0.547519 17.8395 0.711259C17.3489 0.874999 17.0833 1.40559 17.2471 1.89681C17.2583 1.93119 18.3489 5.36535 14.8216 8.89201C14.4578 9.2558 14.4541 9.84896 14.8216 10.2176C15.1896 10.5855 15.7827 10.5827 16.1478 10.2176Z" fill="#ED1B2F"/>
<path d="M18.1364 12.2064C17.7703 12.5725 17.7703 13.166 18.1364 13.5321C18.4991 13.8949 19.0885 13.8996 19.4566 13.5376C19.9408 13.2964 21.444 14.2014 22.2794 13.3663C23.1058 12.5399 22.2278 11.0673 22.4471 10.5512C22.9638 10.3313 24.4359 11.2098 25.2623 10.3835C26.0888 9.55702 25.2108 8.08442 25.4301 7.56826C25.9476 7.34834 27.4188 8.22691 28.2452 7.40052C29.0718 6.57407 28.1937 5.10147 28.413 4.58532C28.9275 4.36652 30.4024 5.24309 31.2283 4.41751C32.0633 3.58238 31.1599 2.07653 31.3995 1.59475C31.7601 1.22827 31.7581 0.638868 31.3939 0.274577C31.0279 -0.0915257 30.4343 -0.0915257 30.0682 0.274577C29.3293 1.01347 29.4738 2.05659 29.613 2.80236C28.8672 2.66318 27.8242 2.51863 27.0853 3.25746C26.3464 3.99635 26.4909 5.03948 26.6301 5.78524C25.8844 5.64613 24.8412 5.50145 24.1023 6.2404C23.3635 6.9793 23.5081 8.02242 23.6472 8.76819C22.9014 8.62901 21.8583 8.48439 21.1195 9.22328C20.3806 9.96218 20.5251 11.0053 20.6643 11.7511C19.9185 11.612 18.8752 11.4675 18.1364 12.2064Z" fill="#ED1B2F"/>
<path d="M23.4392 4.2518C23.8053 3.8857 23.8053 3.29217 23.4392 2.92607C23.0731 2.55996 22.4795 2.55996 22.1134 2.92607C21.7473 3.29217 21.7473 3.8857 22.1134 4.2518C22.4795 4.6179 23.0731 4.6179 23.4392 4.2518Z" fill="#ED1B2F"/>
<path d="M29.4052 11.1552C29.923 11.1552 30.3427 10.7355 30.3427 10.2177C30.3427 9.69998 29.923 9.28027 29.4052 9.28027C28.8875 9.28027 28.4678 9.69998 28.4678 10.2177C28.4678 10.7355 28.8875 11.1552 29.4052 11.1552Z" fill="#ED1B2F"/>
<path d="M27.4162 18.8351C27.0501 19.2012 27.0501 19.7948 27.4162 20.1609C27.7823 20.527 28.3758 20.527 28.7419 20.1609C29.108 19.7948 29.108 19.2012 28.7419 18.8351C28.3759 18.469 27.7823 18.469 27.4162 18.8351Z" fill="#ED1B2F"/>
<path d="M14.1589 5.5776C14.525 5.2115 14.525 4.61797 14.1589 4.25187C13.7928 3.88577 13.1993 3.88577 12.8332 4.25187C12.4671 4.61791 12.4671 5.2115 12.8332 5.5776C13.1993 5.94371 13.7929 5.94371 14.1589 5.5776Z" fill="#ED1B2F"/>
</g>
<defs>
<clipPath id="clip0_6004_153028">
<rect width="32" height="32" fill="white"/>
</clipPath>
</defs>
</svg>
