<svg width="160" height="160" viewBox="0 0 160 160" fill="none" xmlns="http://www.w3.org/2000/svg">
<g clip-path="url(#clip0_1919_3811)">
<mask id="mask0_1919_3811" style="mask-type:luminance" maskUnits="userSpaceOnUse" x="0" y="0" width="160" height="160">
<path d="M160 0H0V160H160V0Z" fill="white"/>
</mask>
<g mask="url(#mask0_1919_3811)">
<path d="M144.1 135.4C123.3 175.6 77.7001 193.5 42.3001 175.3C6.90008 157 -4.89992 109.6 15.9001 69.3999C36.7001 29.1999 82.3001 11.2999 117.7 29.4999C153.1 47.7999 164.9 95.1999 144.1 135.4Z" fill="#FAFAFA"/>
<g opacity="0.1" filter="url(#filter0_f_1919_3811)">
<ellipse cx="78.3999" cy="162.4" rx="64" ry="12" fill="#3E3E3E"/>
</g>
<path d="M0 160.3H160" stroke="#DEDEDE"/>
<path d="M11.3999 160.5L22.0999 147C25.5999 142.6 28.3999 137.7 30.4999 132.4L31.9999 128.6C33.0999 125.7 34.8999 123.1 37.1999 121C39.3999 118.9 42.1999 117.2 45.0999 116.3L47.7999 115.4C52.3999 113.9 57.0999 113 61.8999 112.7L91.4999 110.9C91.5999 110.9 91.6999 110.9 91.7999 110.9C93.4999 110.9 95.1999 111.5 96.4999 112.7C97.8999 113.9 98.6999 115.6 98.8999 117.4C98.9999 119.2 98.3999 121 97.1999 122.4C95.9999 123.8 94.2999 124.6 92.3999 124.7L69.9999 126C69.6999 126 69.4999 126.1 69.1999 126.2C68.9999 126.3 68.6999 126.5 68.5999 126.7C68.3999 126.9 68.2999 127.1 68.1999 127.4C68.0999 127.7 68.0999 127.9 68.0999 128.2C68.0999 128.5 68.1999 128.7 68.2999 129C68.3999 129.2 68.5999 129.5 68.7999 129.6C68.9999 129.8 69.1999 129.9 69.4999 130C69.6999 130.1 69.8999 130.1 70.1999 130.1H70.2999L92.5999 128.7C94.4999 128.6 96.2999 128 97.8999 127C99.3999 126 100.6 124.7 101.5 123.2L122 121.1C125.9 120.7 129.5 118.9 132.2 116L147 99.4997C147.9 98.4997 149.2 97.8997 150.5 97.6997C150.7 97.6997 150.9 97.6997 151.2 97.6997C152.3 97.6997 153.4 97.9997 154.4 98.6997C155.1 99.1997 155.6 99.7997 156 100.5C156.4 101.2 156.7 102 156.7 102.8C156.8 103.6 156.7 104.5 156.4 105.2C156.1 106 155.7 106.7 155.1 107.2L123.1 138.6C119.9 141.7 115.9 143.8 111.6 144.7L81.4999 150.8C77.8999 151.5 74.5999 152.9 71.5999 155C68.5999 157 66.0999 159.6 64.0999 162.7L57.2999 173.2L11.3999 160.5Z" fill="#F0F0F0"/>
<path d="M151.2 98.1997C152.2 98.1997 153.2 98.4997 154.1 99.0997C154.7 99.4997 155.2 100.1 155.6 100.7C156 101.4 156.2 102.1 156.3 102.8C156.4 103.5 156.3 104.3 156 105C155.7 105.7 155.3 106.3 154.8 106.9L122.8 138.3C119.7 141.4 115.8 143.4 111.5 144.3L81.3998 150.4C77.7998 151.1 74.3998 152.6 71.2998 154.7C68.1998 156.8 65.6998 159.4 63.6998 162.5L57.0998 172.7L12.2998 160.3L22.4998 147.4C25.9998 142.9 28.8998 138 30.9998 132.7L32.4998 128.9C33.5998 126.1 35.3998 123.5 37.5998 121.4C39.7998 119.3 42.4998 117.7 45.2998 116.8L47.9998 115.9C52.4998 114.4 57.1998 113.5 61.9998 113.2L91.5998 111.4C91.6998 111.4 91.7998 111.4 91.8998 111.4C93.4998 111.4 94.9998 112 96.1998 113C97.4998 114.1 98.2998 115.7 98.3998 117.4C98.4998 119.1 97.8998 120.8 96.7998 122.1C95.6998 123.4 94.0998 124.2 92.3998 124.3L69.9998 125.5C69.6998 125.5 69.2998 125.6 68.9998 125.8C68.6998 125.9 68.3998 126.2 68.1998 126.4C67.9998 126.7 67.7998 126.9 67.6998 127.3C67.5998 127.6 67.4998 128 67.5998 128.3C67.5998 128.6 67.6998 129 67.8998 129.3C68.0998 129.6 68.2998 129.9 68.4998 130.1C68.7998 130.3 68.9998 130.5 69.3998 130.6C69.6998 130.7 69.8998 130.7 70.1998 130.7C70.2998 130.7 70.2998 130.7 70.3998 130.7L92.6998 129.3C94.5998 129.2 96.4998 128.6 98.1998 127.5C99.6998 126.5 101 125.3 101.9 123.7L122.1 121.7C126.2 121.3 129.9 119.4 132.6 116.4L147.5 99.8997C148.3 98.9997 149.5 98.3997 150.7 98.2997C150.8 98.1997 151 98.1997 151.2 98.1997ZM151.2 97.1997C151 97.1997 150.7 97.1997 150.5 97.1997C149 97.3997 147.7 98.0997 146.7 99.1997L131.8 115.7C129.3 118.5 125.8 120.3 122 120.7L101.3 122.8C100.5 124.4 99.1998 125.7 97.6998 126.7C96.1998 127.7 94.4998 128.2 92.6998 128.3L70.3998 129.7H70.2998C70.0998 129.7 69.9998 129.7 69.7998 129.6C69.5998 129.5 69.3998 129.4 69.2998 129.3C69.0998 129.2 68.9998 129 68.8998 128.8C68.7998 128.6 68.7998 128.4 68.6998 128.2C68.6998 128 68.6998 127.8 68.7998 127.6C68.8998 127.4 68.9998 127.2 69.0998 127.1C69.1998 126.9 69.3998 126.8 69.5998 126.7C69.7998 126.6 69.9998 126.6 70.1998 126.5L92.4998 125.1C94.4998 125 96.2998 124.1 97.5998 122.6C98.8998 121.1 99.5998 119.2 99.4998 117.2C99.3998 115.2 98.3998 113.4 96.9998 112.1C95.5998 110.9 93.7998 110.2 91.9998 110.2C91.8998 110.2 91.7998 110.2 91.5998 110.2L61.9998 112C57.1998 112.3 52.3998 113.2 47.7998 114.7L45.0998 115.6C42.0998 116.6 39.2998 118.2 36.9998 120.4C34.6998 122.6 32.8998 125.3 31.6998 128.2L30.1998 132C28.0998 137.2 25.2998 142.1 21.8998 146.5L10.7998 160.6L57.7998 173.6L64.7998 162.8C66.6998 159.8 69.1998 157.3 72.1998 155.3C75.0998 153.3 78.3998 151.9 81.8998 151.2L112 145.1C116.4 144.2 120.5 142 123.8 138.8L155.8 107.4C156.4 106.8 156.9 106 157.2 105.2C157.5 104.4 157.6 103.5 157.5 102.6C157.4 101.7 157.2 100.8 156.7 100.1C156.3 99.2997 155.6 98.5997 154.9 98.0997C153.6 97.5997 152.4 97.1997 151.2 97.1997Z" fill="#D6D6D6"/>
<path d="M103 118.9C103.1 118.3 103.1 117.6 103 117C102.9 114.9 102.1 112.9 100.9 111.2L117.3 94.4998C118 93.7998 118.9 93.3998 119.9 93.2998C120.1 93.2998 120.2 93.2998 120.4 93.2998C121.2 93.2998 122 93.4998 122.7 93.9998C123.5 94.4998 124.2 95.2998 124.5 96.1998C124.8 97.0998 124.8 98.0998 124.5 98.9998L105 118.7L103 118.9Z" fill="#F0F0F0"/>
<path d="M120.3 93.6997C121 93.6997 121.7 93.8997 122.3 94.2997C123 94.7997 123.6 95.4997 123.9 96.2997C124.2 97.0997 124.2 97.8997 123.9 98.5997L104.7 118.2L103.5 118.3C103.5 117.8 103.5 117.4 103.5 116.9C103.4 114.8 102.7 112.8 101.5 111.2L117.6 94.7997C118.2 94.1997 119 93.7997 119.9 93.6997C120 93.6997 120.2 93.6997 120.3 93.6997ZM120.3 92.6997C120.1 92.6997 119.9 92.6997 119.8 92.6997C118.7 92.7997 117.7 93.2997 116.9 94.0997L100.2 111.1C101.6 112.8 102.4 114.8 102.5 117C102.6 117.8 102.5 118.6 102.4 119.4L105.2 119.1L124.8 99.0997C125.2 98.0997 125.2 96.8997 124.8 95.8997C124.4 94.8997 123.7 93.9997 122.8 93.3997C122.1 92.8997 121.2 92.6997 120.3 92.6997Z" fill="#D6D6D6"/>
<path d="M132.8 96.3001C133.6 95.6001 134.6 95.1001 135.7 95.1001C135.8 95.1001 135.8 95.1001 135.9 95.1001C136.9 95.1001 137.9 95.4001 138.7 96.1001C139.6 96.8001 140.1 97.9001 140.2 99.0001C140.2 99.6001 140.2 100.1 140 100.7C139.8 101.2 139.5 101.7 139.1 102.2C139 102.3 129.1 113.4 129.1 113.4C127.2 115.6 124.5 116.9 121.6 117.2L111.5 118.2L132.8 96.3001Z" fill="#F0F0F0"/>
<path d="M135.9 95.5C136.8 95.5 137.7 95.8 138.3 96.3C139.1 97 139.6 97.9 139.6 98.9C139.6 99.4 139.6 99.9 139.4 100.4C139.2 100.9 139 101.3 138.6 101.7C138.5 101.8 128.6 112.9 128.6 112.9C126.7 115 124.2 116.2 121.4 116.5L112.7 117.4L133.1 96.6C133.8 95.9 134.7 95.5 135.7 95.5C135.7 95.5 135.8 95.5 135.9 95.5ZM135.9 94.5C135.8 94.5 135.7 94.5 135.7 94.5C134.5 94.6 133.4 95 132.5 95.9L110.2 118.7L121.7 117.5C124.7 117.2 127.5 115.8 129.5 113.6C129.5 113.6 139.5 102.5 139.5 102.4C139.9 101.9 140.3 101.4 140.5 100.7C140.7 100.1 140.8 99.4 140.7 98.8C140.6 97.5 140 96.4 139 95.5C138.1 94.9 137 94.5 135.9 94.5Z" fill="#D6D6D6"/>
<path d="M122.6 40H71.4C67.9 40 65 42.9 65 46.4V80.5C65 84 67.9 86.9 71.4 86.9H77.8V97.6C77.8 98.4 78.3 99.2 79 99.5C79.3 99.6 79.6 99.7 79.9 99.7C80.4 99.7 80.8 99.5 81.2 99.2L96.6 86.9H122.5C126 86.9 128.9 84 128.9 80.5V46.4C129 42.9 126.1 40 122.6 40ZM97 69.9H79.9C78.7 69.9 77.8 68.9 77.8 67.8C77.8 66.7 78.8 65.7 79.9 65.7H97C98.2 65.7 99.1 66.7 99.1 67.8C99.1 68.9 98.2 69.9 97 69.9ZM114.1 61.3H79.9C78.7 61.3 77.8 60.3 77.8 59.2C77.8 58.1 78.8 57.1 79.9 57.1H114C115.2 57.1 116.1 58.1 116.1 59.2C116.1 60.3 115.2 61.3 114.1 61.3Z" fill="#ED1B2F"/>
<path fill-rule="evenodd" clip-rule="evenodd" d="M62 41.4C62 37.8 62 35.9 61.3 34.5C60.7 33.3 59.6 32.3 58.4 31.7C57 31 55.1 31 51.4 31H42.7C39 31 37.1 31 35.7 31.7C34.4 32.3 33.4 33.3 32.8 34.5C32 35.9 32 37.8 32 41.4V43.4C32 47 32 48.9 32.7 50.3C33.3 51.5 34.4 52.5 35.6 53.1C37 53.8 38.9 53.8 42.6 53.8H54.6C55 53.8 55.5 54 55.8 54.3L59.1 57.6C60.1 58.6 61.9 57.9 61.9 56.4V53.8V45.7V41.4H62ZM52 37.5C52.9 37.5 53.7 38.2 53.7 39.1C53.7 40 53 40.7 52 40.7H42C41.1 40.7 40.3 40 40.3 39.1C40.3 38.2 41 37.5 42 37.5H52ZM52 44C52.9 44 53.7 44.7 53.7 45.6C53.7 46.5 53 47.2 52 47.2H47C46.1 47.2 45.3 46.5 45.3 45.6C45.3 44.7 46 44 47 44H52Z" fill="#121212"/>
</g>
</g>
<defs>
<filter id="filter0_f_1919_3811" x="-5.6001" y="130.4" width="168" height="64" filterUnits="userSpaceOnUse" color-interpolation-filters="sRGB">
<feFlood flood-opacity="0" result="BackgroundImageFix"/>
<feBlend mode="normal" in="SourceGraphic" in2="BackgroundImageFix" result="shape"/>
<feGaussianBlur stdDeviation="10" result="effect1_foregroundBlur_1919_3811"/>
</filter>
<clipPath id="clip0_1919_3811">
<rect width="160" height="160" fill="white"/>
</clipPath>
</defs>
</svg>
