<svg width="200" height="200" viewBox="0 0 200 200" fill="none" xmlns="http://www.w3.org/2000/svg">
<g clip-path="url(#clip0_6004_150715)">
<ellipse cx="97.0698" cy="203.404" rx="96.3366" ry="85.301" transform="rotate(-9.85195 97.0698 203.404)" fill="#ED1B2F"/>
<path fill-rule="evenodd" clip-rule="evenodd" d="M124.199 57.8376C146.31 61.391 159.084 83.8671 152.724 108.025C146.365 132.186 123.277 148.896 101.169 145.34C79.0585 141.787 66.2842 119.311 72.6436 95.1525C79.0029 70.9966 102.089 54.2843 124.199 57.8376Z" fill="#EC1B2E"/>
<path d="M75.3478 58.7733C75.0847 59.0375 74.8191 59.2992 74.5463 59.5586C64.5606 69.2175 51.1538 74.4627 38.0175 72.6158L37.6674 72.9187V74.55C37.6674 74.8529 37.9113 75.0978 38.213 75.0978H42.3053C42.5033 75.0978 42.6482 75.2844 42.5999 75.4759L24.9849 145.365C24.9366 145.556 25.0815 145.743 25.2795 145.743H58.1892L79.0587 57.8013C79.0973 57.6123 78.9524 57.4377 78.7617 57.4377H76.8327C76.7047 57.4935 76.5936 57.542 76.4657 57.5977C76.0963 57.9952 75.7245 58.3879 75.3454 58.7733H75.3478Z" fill="#EC1B2E"/>
<path fill-rule="evenodd" clip-rule="evenodd" d="M154.557 68.277H152.949V65.5138H154.567V61.5291H157.763V65.5138H162.701V68.277H157.763V74.1936C157.763 74.8334 157.763 76.2611 158.022 76.8064C158.171 77.1191 158.394 77.3615 158.712 77.5118C159.123 77.7105 159.632 77.7614 160.086 77.7614C161.16 77.7614 162.698 77.7323 162.698 77.7323V77.3227V80.6312C162.698 80.6312 160.397 80.6337 159.424 80.6337C156.02 80.6337 154.555 78.6049 154.555 75.42V68.277H154.557Z" fill="#EC1B2E"/>
<path fill-rule="evenodd" clip-rule="evenodd" d="M173.995 77.8681V80.6313H170.791V77.8681V71.9516C170.791 71.3117 170.791 69.884 170.533 69.3387C170.383 69.026 170.161 68.7836 169.843 68.6333C169.432 68.4346 168.923 68.3837 168.469 68.3837C167.493 68.3837 166.692 68.7448 165.856 69.1569V68.8224V65.9744L166.243 65.8799C167.187 65.652 168.157 65.509 169.13 65.509C172.534 65.509 174 67.5378 174 70.7227V77.8657L173.995 77.8681Z" fill="#EC1B2E"/>
<path d="M165.856 57.3625H162.662V80.6337H165.856V57.3625Z" fill="#EC1B2E"/>
<path fill-rule="evenodd" clip-rule="evenodd" d="M123.223 56.4774C145.334 60.0307 158.108 82.5069 151.748 106.665C145.389 130.826 122.301 147.536 100.193 143.98C78.0824 140.427 65.3082 117.951 71.6675 93.7922C78.0244 69.6339 101.113 52.9216 123.223 56.4774Z" fill="white"/>
<path d="M74.3698 57.4107C74.1067 57.6749 73.8411 57.9367 73.5683 58.1961C63.5826 67.855 50.1758 73.1002 37.0395 71.2532C36.8922 71.3793 36.8367 71.4302 36.6894 71.5562V73.1874C36.6894 73.4904 36.9333 73.7352 37.235 73.7352H41.3273C41.5253 73.7352 41.6702 73.9219 41.6219 74.1133L24.0093 144.002C23.9611 144.193 24.1059 144.38 24.3039 144.38H57.2136L78.0831 56.4412C78.1217 56.2522 77.9768 56.0776 77.7861 56.0776H75.8571C75.7291 56.1334 75.618 56.1819 75.4901 56.2376C75.1207 56.6351 74.7489 57.0278 74.3698 57.4132V57.4107Z" fill="white"/>
<path fill-rule="evenodd" clip-rule="evenodd" d="M86.9824 91.2545L87.5329 90.9176L88.7376 90.5492L90.2635 90.4255L93.5445 90.6267L97.3761 91.5308L99.5297 94.2261L100.413 98.2884L99.1482 106.961L98.5832 107.511L91.9125 109.273L85.7463 108.57L85.1354 102.394L84.5415 94.1195L85.5483 92.527L86.9824 91.2545Z" fill="white"/>
<path fill-rule="evenodd" clip-rule="evenodd" d="M94.8771 89.1748C89.2903 88.278 83.4573 92.4979 81.8518 98.6035C80.2462 104.707 83.4718 110.386 89.0585 111.283C94.6453 112.179 100.478 107.96 102.084 101.854C103.689 95.7507 100.464 90.0717 94.8771 89.1748ZM89.6669 107.334H86.9725V94.8636H89.6669V107.334ZM88.3197 94.008C87.4071 94.008 86.6683 93.2905 86.6683 92.4034C86.6683 91.5163 87.4071 90.7988 88.3197 90.7988C89.2324 90.7988 89.9711 91.5163 89.9711 92.4034C89.9711 93.2905 89.2324 94.008 88.3197 94.008ZM98.6313 97.1832H94.4859V102.15C94.4859 102.685 94.4859 103.885 94.7032 104.343C94.8288 104.605 95.0147 104.809 95.2827 104.935C95.6279 105.102 96.0553 105.145 96.4367 105.145C97.2552 105.145 97.9288 104.842 98.6289 104.496V104.777V107.167L98.3054 107.244C97.5135 107.436 96.6975 107.555 95.8814 107.555C93.0229 107.555 91.794 105.851 91.794 103.177V97.1808H90.4443V94.8612H91.8012V91.5163H94.4859V94.8612H98.6313V97.1808V97.1832Z" fill="#EC1B2E"/>
<path fill-rule="evenodd" clip-rule="evenodd" d="M122.268 99.4761H128.275C128.125 97.8013 127.326 96.8463 125.486 96.8463C124.632 96.8463 123.837 97.062 123.207 97.6534C122.678 98.1503 122.396 98.7853 122.268 99.4761ZM137.845 107.601C136.129 107.601 134.499 107.152 133.292 105.894C132.051 104.6 131.664 102.85 131.664 101.119C131.664 99.3889 132.092 97.6534 133.338 96.3421C134.545 95.0793 136.124 94.5727 137.857 94.5727C139.216 94.5727 140.535 94.9824 141.742 95.5762L141.976 95.6925V98.3854L141.971 99.052C141.056 97.8861 139.504 96.9772 137.814 96.9772C136.836 96.9772 135.967 97.2559 135.325 98.0121C134.605 98.8581 134.419 100.051 134.419 101.119C134.419 102.188 134.598 103.364 135.317 104.193C135.96 104.935 136.846 105.199 137.811 105.199C139.497 105.199 141.034 104.244 141.971 103.185V103.808L141.974 106.471L141.727 106.583C140.537 107.128 139.168 107.598 137.843 107.598M122.217 101.682C122.275 102.61 122.546 103.517 123.236 104.19C124.018 104.952 125.064 105.196 126.133 105.196C127.536 105.196 128.818 104.658 129.953 103.88L130.061 103.805H130.704V106.476L130.436 106.58C129.108 107.099 127.541 107.598 126.102 107.598C124.306 107.598 122.541 107.177 121.223 105.909C119.912 104.646 119.47 102.928 119.47 101.17C119.47 99.4131 119.902 97.6898 121.138 96.3567C122.321 95.0793 123.857 94.5364 125.59 94.5364C127.089 94.5364 128.497 94.9412 129.54 96.0488C130.614 97.1977 130.945 98.7466 130.945 100.264V101.684H122.215L122.217 101.682ZM118.654 107.332H115.959V94.8612H118.654V107.332ZM108.967 103.252L112.432 94.8612H115.288L109.892 107.332H107.893L102.531 94.8612H105.455L108.967 103.252Z" fill="#231F20"/>
<path fill-rule="evenodd" clip-rule="evenodd" d="M117.308 90.7991C118.221 90.7991 118.96 91.5165 118.96 92.4036C118.96 93.2908 118.221 94.0082 117.308 94.0082C116.396 94.0082 115.657 93.2908 115.657 92.4036C115.657 91.5165 116.396 90.7991 117.308 90.7991Z" fill="#231F20"/>
<path fill-rule="evenodd" clip-rule="evenodd" d="M153.578 66.9144H151.97V64.1513H153.588V60.1665H156.784V64.1513H161.722V66.9144H156.784V72.831C156.784 73.4709 156.784 74.8985 157.043 75.4439C157.192 75.7566 157.415 75.999 157.733 76.1492C158.144 76.348 158.653 76.3989 159.107 76.3989C160.181 76.3989 161.719 76.3698 161.719 76.3698V75.9602V79.2687C161.719 79.2687 159.418 79.2711 158.445 79.2711C155.041 79.2711 153.576 77.2424 153.576 74.0575V66.9144H153.578Z" fill="white"/>
<path fill-rule="evenodd" clip-rule="evenodd" d="M173.019 76.5056V79.2687H169.815V76.5056V70.589C169.815 69.9491 169.815 68.5215 169.556 67.9761C169.407 67.6635 169.185 67.4211 168.866 67.2708C168.456 67.072 167.946 67.0211 167.492 67.0211C166.517 67.0211 165.715 67.3823 164.88 67.7943V67.4599V64.6119L165.266 64.5173C166.21 64.2895 167.181 64.1465 168.154 64.1465C171.558 64.1465 173.023 66.1752 173.023 69.3601V76.5032L173.019 76.5056Z" fill="white"/>
<path d="M164.877 56H161.683V79.2712H164.877V56Z" fill="white"/>
<path d="M24.98 179L30.52 165H33.4L38.9 179H35.46L32.82 171.9C32.7133 171.62 32.6066 171.32 32.5 171C32.3933 170.68 32.2866 170.353 32.18 170.02C32.0733 169.673 31.9666 169.34 31.86 169.02C31.7666 168.687 31.6866 168.38 31.62 168.1L32.22 168.08C32.14 168.413 32.0466 168.74 31.94 169.06C31.8466 169.38 31.7466 169.7 31.64 170.02C31.5466 170.327 31.44 170.64 31.32 170.96C31.2 171.267 31.0866 171.587 30.98 171.92L28.34 179H24.98ZM27.62 176.32L28.68 173.76H35.12L36.16 176.32H27.62Z" fill="black"/>
<path d="M40.0467 179V165H43.0867L50.4267 175L49.7667 174.9C49.7 174.46 49.6467 174.04 49.6067 173.64C49.5667 173.24 49.5267 172.847 49.4867 172.46C49.46 172.073 49.4334 171.68 49.4067 171.28C49.3934 170.88 49.38 170.447 49.3667 169.98C49.3667 169.513 49.3667 169.007 49.3667 168.46V165H52.6667V179H49.5867L41.9267 168.68L42.9467 168.82C43.0134 169.46 43.0667 170.007 43.1067 170.46C43.16 170.9 43.2 171.293 43.2267 171.64C43.2667 171.987 43.2934 172.3 43.3067 172.58C43.32 172.86 43.3267 173.14 43.3267 173.42C43.34 173.687 43.3467 173.987 43.3467 174.32V179H40.0467Z" fill="black"/>
<path d="M55.5795 179V165H58.6195L65.9595 175L65.2995 174.9C65.2328 174.46 65.1795 174.04 65.1395 173.64C65.0995 173.24 65.0595 172.847 65.0195 172.46C64.9928 172.073 64.9662 171.68 64.9395 171.28C64.9262 170.88 64.9128 170.447 64.8995 169.98C64.8995 169.513 64.8995 169.007 64.8995 168.46V165H68.1995V179H65.1195L57.4595 168.68L58.4795 168.82C58.5462 169.46 58.5995 170.007 58.6395 170.46C58.6928 170.9 58.7328 171.293 58.7595 171.64C58.7995 171.987 58.8262 172.3 58.8395 172.58C58.8528 172.86 58.8595 173.14 58.8595 173.42C58.8728 173.687 58.8795 173.987 58.8795 174.32V179H55.5795Z" fill="black"/>
<path d="M70.8323 179V176.14H73.1923V167.86H70.8323V165H78.9723V167.86H76.5923V176.14H78.9723V179H70.8323Z" fill="black"/>
<path d="M85.5261 179L79.9261 165H83.4661L86.1661 172.14C86.3261 172.553 86.4594 172.913 86.5661 173.22C86.6861 173.527 86.7861 173.813 86.8661 174.08C86.9594 174.347 87.0394 174.62 87.1061 174.9C87.1861 175.167 87.2727 175.473 87.3661 175.82H86.7461C86.8527 175.367 86.9594 174.967 87.0661 174.62C87.1727 174.26 87.2927 173.893 87.4261 173.52C87.5594 173.133 87.7261 172.673 87.9261 172.14L90.5261 165H94.0061L88.3661 179H85.5261Z" fill="black"/>
<path d="M95.2444 179V165H105.004V167.9H98.5443V176.1H105.204V179H95.2444ZM96.8444 173.26V170.5H104.104V173.26H96.8444Z" fill="black"/>
<path d="M107.535 179V165H113.835C114.728 165 115.535 165.193 116.255 165.58C116.988 165.967 117.562 166.5 117.975 167.18C118.388 167.847 118.595 168.607 118.595 169.46C118.595 170.34 118.388 171.133 117.975 171.84C117.562 172.533 116.995 173.08 116.275 173.48C115.555 173.88 114.742 174.08 113.835 174.08H110.775V179H107.535ZM115.295 179L111.735 172.68L115.215 172.18L119.175 179H115.295ZM110.775 171.48H113.535C113.882 171.48 114.182 171.407 114.435 171.26C114.702 171.1 114.902 170.88 115.035 170.6C115.182 170.32 115.255 170 115.255 169.64C115.255 169.28 115.175 168.967 115.015 168.7C114.855 168.42 114.622 168.207 114.315 168.06C114.022 167.913 113.662 167.84 113.235 167.84H110.775V171.48Z" fill="black"/>
<path d="M125.618 179.2C124.698 179.2 123.865 179.093 123.118 178.88C122.385 178.653 121.731 178.333 121.158 177.92C120.585 177.493 120.071 176.993 119.618 176.42L121.678 174.08C122.345 174.973 123.011 175.573 123.678 175.88C124.358 176.187 125.058 176.34 125.778 176.34C126.138 176.34 126.465 176.293 126.758 176.2C127.051 176.107 127.278 175.973 127.438 175.8C127.598 175.613 127.678 175.387 127.678 175.12C127.678 174.92 127.625 174.74 127.518 174.58C127.425 174.42 127.291 174.28 127.118 174.16C126.945 174.04 126.738 173.933 126.498 173.84C126.258 173.733 126.005 173.647 125.738 173.58C125.471 173.5 125.198 173.433 124.918 173.38C124.145 173.207 123.471 172.993 122.898 172.74C122.325 172.487 121.845 172.18 121.458 171.82C121.085 171.447 120.805 171.027 120.618 170.56C120.431 170.08 120.338 169.547 120.338 168.96C120.338 168.333 120.478 167.76 120.758 167.24C121.051 166.707 121.438 166.253 121.918 165.88C122.411 165.493 122.978 165.2 123.618 165C124.258 164.787 124.925 164.68 125.618 164.68C126.538 164.68 127.325 164.78 127.978 164.98C128.645 165.167 129.211 165.44 129.678 165.8C130.158 166.16 130.565 166.593 130.898 167.1L128.798 169.12C128.518 168.773 128.211 168.487 127.878 168.26C127.558 168.033 127.211 167.86 126.838 167.74C126.478 167.62 126.105 167.56 125.718 167.56C125.318 167.56 124.971 167.613 124.678 167.72C124.398 167.813 124.178 167.953 124.018 168.14C123.858 168.313 123.778 168.527 123.778 168.78C123.778 169.007 123.845 169.2 123.978 169.36C124.111 169.52 124.291 169.667 124.518 169.8C124.745 169.92 125.005 170.027 125.298 170.12C125.591 170.2 125.898 170.267 126.218 170.32C126.951 170.467 127.611 170.66 128.198 170.9C128.798 171.14 129.311 171.433 129.738 171.78C130.178 172.127 130.511 172.54 130.738 173.02C130.978 173.487 131.098 174.033 131.098 174.66C131.098 175.633 130.858 176.46 130.378 177.14C129.911 177.807 129.265 178.32 128.438 178.68C127.625 179.027 126.685 179.2 125.618 179.2Z" fill="black"/>
<path d="M131.274 179L136.814 165H139.694L145.194 179H141.754L139.114 171.9C139.007 171.62 138.9 171.32 138.794 171C138.687 170.68 138.58 170.353 138.474 170.02C138.367 169.673 138.26 169.34 138.154 169.02C138.06 168.687 137.98 168.38 137.914 168.1L138.514 168.08C138.434 168.413 138.34 168.74 138.234 169.06C138.14 169.38 138.04 169.7 137.934 170.02C137.84 170.327 137.734 170.64 137.614 170.96C137.494 171.267 137.38 171.587 137.274 171.92L134.634 179H131.274ZM133.914 176.32L134.974 173.76H141.414L142.454 176.32H133.914Z" fill="black"/>
<path d="M146.34 179V165H152.64C153.534 165 154.34 165.193 155.06 165.58C155.794 165.967 156.367 166.5 156.78 167.18C157.194 167.847 157.4 168.607 157.4 169.46C157.4 170.34 157.194 171.133 156.78 171.84C156.367 172.533 155.8 173.08 155.08 173.48C154.36 173.88 153.547 174.08 152.64 174.08H149.58V179H146.34ZM154.1 179L150.54 172.68L154.02 172.18L157.98 179H154.1ZM149.58 171.48H152.34C152.687 171.48 152.987 171.407 153.24 171.26C153.507 171.1 153.707 170.88 153.84 170.6C153.987 170.32 154.06 170 154.06 169.64C154.06 169.28 153.98 168.967 153.82 168.7C153.66 168.42 153.427 168.207 153.12 168.06C152.827 167.913 152.467 167.84 152.04 167.84H149.58V171.48Z" fill="black"/>
<path d="M162.407 179V172.02L162.547 173L156.887 165H160.747L165.067 171.2L163.307 171.14L167.207 165H170.947L165.527 173.22L165.827 171.86V179H162.407Z" fill="black"/>
</g>
<defs>
<clipPath id="clip0_6004_150715">
<rect width="200" height="200" fill="white"/>
</clipPath>
</defs>
</svg>
