<svg width="200" height="200" viewBox="0 0 200 200" fill="none" xmlns="http://www.w3.org/2000/svg">
<g clip-path="url(#clip0_1549_13125)">
<path d="M180.18 169.252C154.173 219.547 97.192 241.851 52.91 219.068C8.62808 196.285 -6.18667 137.043 19.8204 86.7479C45.8274 36.4525 102.808 14.1492 147.09 36.9321C191.372 59.715 206.187 118.957 180.18 169.252Z" fill="#FAFAFA"/>
<rect x="27.5359" y="38.6414" width="103.431" height="132.85" rx="16.5017" transform="rotate(-6 27.5359 38.6414)" fill="#F0F0F0" stroke="#D6D6D6"/>
<ellipse cx="27.754" cy="32.1694" rx="27.754" ry="32.1694" transform="matrix(0.867918 0.496709 -0.49671 0.867917 81.8379 42.8383)" fill="white"/>
<path d="M100.059 71.8681C107.072 71.8681 112.757 64.9625 112.757 56.4439C112.757 47.9251 110.891 41.0194 100.059 41.0194C89.2265 41.0194 87.3594 47.9251 87.3594 56.4439C87.3594 64.9625 93.0451 71.8681 100.059 71.8681Z" fill="#ED1B2F"/>
<path d="M76.0689 95.4191C76.0646 95.2728 76.0667 94.8998 76.0689 95.4191V95.4191Z" fill="#ED1B2F"/>
<path d="M124.039 95.8241C124.041 94.8376 124.046 95.6819 124.039 95.8241V95.8241Z" fill="#ED1B2F"/>
<path d="M124.016 94.7967C123.78 79.9571 121.842 75.7286 107.012 73.052C107.012 73.052 104.924 75.7122 100.058 75.7122C95.192 75.7122 93.1039 73.052 93.1039 73.052C78.4349 75.6994 76.379 79.8652 76.1087 94.3147C76.0865 95.4946 76.0762 95.5566 76.0723 95.4196C76.0732 95.6762 76.0742 96.1509 76.0742 96.9787C76.0742 96.9787 79.6051 104.097 100.058 104.097C120.51 104.097 124.042 96.9787 124.042 96.9787C124.042 96.4468 124.042 96.077 124.042 95.8254C124.039 95.9101 124.031 95.746 124.016 94.7967Z" fill="#ED1B2F"/>
<path d="M83.7855 125.944C84.1753 125.154 85.3014 125.154 85.6912 125.944L88.6726 131.984C88.8272 132.297 89.126 132.514 89.4718 132.565L96.1405 133.54C97.0118 133.667 97.359 134.738 96.7283 135.352L91.9045 140.051C91.6538 140.295 91.5394 140.647 91.5986 140.992L92.7368 147.628C92.8856 148.496 91.9744 149.158 91.1949 148.748L85.233 145.613C84.9234 145.45 84.5534 145.45 84.2438 145.613L78.2819 148.748C77.5024 149.158 76.5911 148.496 76.74 147.628L77.8782 140.992C77.9374 140.647 77.823 140.295 77.5723 140.051L72.7485 135.352C72.1178 134.738 72.465 133.667 73.3363 133.54L80.005 132.565C80.3508 132.514 80.6495 132.297 80.8042 131.984L83.7855 125.944Z" fill="#121212"/>
<path d="M116.649 120.145C117.039 119.355 118.165 119.355 118.555 120.145L121.536 126.185C121.691 126.498 121.989 126.715 122.335 126.766L129.004 127.741C129.875 127.868 130.222 128.939 129.592 129.553L124.768 134.252C124.517 134.496 124.403 134.848 124.462 135.192L125.6 141.829C125.749 142.697 124.838 143.359 124.058 142.949L118.096 139.814C117.787 139.651 117.417 139.651 117.107 139.814L111.145 142.949C110.366 143.359 109.454 142.697 109.603 141.829L110.742 135.192C110.801 134.848 110.686 134.496 110.436 134.252L105.612 129.553C104.981 128.939 105.328 127.868 106.2 127.741L112.868 126.766C113.214 126.715 113.513 126.498 113.667 126.185L116.649 120.145Z" fill="#121212"/>
<path d="M149.512 125.944C149.902 125.154 151.028 125.154 151.418 125.944L154.399 131.983C154.554 132.297 154.853 132.514 155.198 132.565L161.867 133.539C162.738 133.667 163.086 134.738 162.455 135.352L157.631 140.05C157.38 140.294 157.266 140.646 157.325 140.991L158.463 147.627C158.612 148.495 157.701 149.157 156.921 148.747L150.96 145.612C150.65 145.449 150.28 145.449 149.97 145.612L144.008 148.747C143.229 149.157 142.318 148.495 142.467 147.627L143.605 140.991C143.664 140.646 143.55 140.294 143.299 140.05L138.475 135.352C137.844 134.738 138.192 133.667 139.063 133.539L145.732 132.565C146.077 132.514 146.376 132.297 146.531 131.983L149.512 125.944Z" fill="#121212"/>
<g opacity="0.1" filter="url(#filter0_f_1549_13125)">
<ellipse cx="98" cy="203" rx="80" ry="15" fill="#3E3E3E"/>
</g>
</g>
<defs>
<filter id="filter0_f_1549_13125" x="-2" y="168" width="200" height="70" filterUnits="userSpaceOnUse" color-interpolation-filters="sRGB">
<feFlood flood-opacity="0" result="BackgroundImageFix"/>
<feBlend mode="normal" in="SourceGraphic" in2="BackgroundImageFix" result="shape"/>
<feGaussianBlur stdDeviation="10" result="effect1_foregroundBlur_1549_13125"/>
</filter>
<clipPath id="clip0_1549_13125">
<rect width="200" height="200" fill="white"/>
</clipPath>
</defs>
</svg>
